<svg width="44" height="40" viewBox="0 0 44 40" fill="none" xmlns="http://www.w3.org/2000/svg">
<path d="M10.5783 34.8824L17.7968 26.1292L21.0988 30.3409L14.7344 38.4344C12.297 41.5316 7.78669 38.2678 10.5783 34.8824ZM19.0086 14.949C19.6961 12.706 19.3801 10.7894 16.7969 7.94222L10.4845 0.348676C9.58872 -0.703378 7.47767 0.841718 8.35959 2.11599L13.4081 8.33457C14.3629 9.49426 12.5886 11.0289 11.6026 9.83453L6.38047 3.40415C5.40828 2.28959 3.39792 3.76178 4.41525 5.03605C5.88743 6.80683 8.16515 9.69911 9.63733 11.4699C10.6581 12.5081 9.10609 14.0462 8.09918 12.7511L2.91529 6.3624C2.1549 5.53603 0.911875 6.04991 0.582023 7.01516C0.227866 8.04638 1.09937 8.79983 1.6931 9.5637L7.47767 17.0357C9.27276 19.1155 11.2796 20.3481 13.6129 19.6502C13.9705 19.5426 14.408 19.3238 14.8768 19.0357L30.418 39.0976C31.2548 40.1774 32.8693 40.292 33.9179 39.4205L34.1575 39.2226C35.338 38.24 35.529 36.4449 34.5186 35.2852L18.0607 16.376C18.5399 15.8413 18.8905 15.3344 19.0086 14.949ZM23.4078 19.3238L25.9667 16.2198C22.6752 8.06027 34.8727 -2.81443 40.7858 2.18543C47.9696 8.26512 37.2928 22.9175 29.7896 19.2961L26.7584 23.1467L23.4078 19.3238Z" fill="#68B504"/>
</svg>
