<svg width="43" height="40" viewBox="0 0 43 40" fill="none" xmlns="http://www.w3.org/2000/svg">
<path d="M3.83333 0C5.99325 2.5 4.82479 4.23023 3.83333 5.83333C3.01044 7.16388 0.5 11.6198 0.5 12.5C0.91509 14.0491 2.35696 15.1042 3.83333 15.1042C5.09756 14.3743 6.10123 12.7321 7.16667 11.6667C7.16667 11.6667 10.5 15.8333 10.5 19.1667C10.5 21.1944 7.16667 28.75 7.16667 28.75C7.54832 29.1317 9.64049 30.1864 10.5 30.4167C10.5 30.4167 13.9044 23.3741 17.1667 22.5C19.2465 21.9427 21.879 21.9763 23.8333 22.5C27.1124 23.3786 30.5 30.4167 30.5 30.4167C31.3448 30.1903 33.2546 29.0841 33.8333 28.75C33.8333 28.75 30.9377 22.4668 30.5 20.8333C30.5 20.8333 29.0984 16.5942 30.5 14.1667C34.8011 11.6834 38.8333 13.8404 38.8333 20.8333C40.5939 19.8169 42.2189 15.8333 42.1667 14.1667C40.5803 8.24631 33.8333 5.83333 28.8333 10.8333C25.615 8.97526 20.0502 8.78077 15.5 10C15.5 2.5 8.69915 0 3.83333 0ZM5.91667 5.83333C6.60702 5.83333 7.16667 6.39298 7.16667 7.08333C7.16667 7.77369 6.60702 8.33333 5.91667 8.33333C5.22631 8.33333 4.66667 7.77369 4.66667 7.08333C4.66667 6.39298 5.22631 5.83333 5.91667 5.83333ZM3 29.1667L0.5 32.5C0.5 32.5 7.16667 40 20.5 40C33.8333 40 40.5 32.5 40.5 32.5L38 29.1667C38 29.1667 30.5 35.8333 20.5 35.8333C10.5 35.8333 3 29.1667 3 29.1667Z" fill="#68B504"/>
</svg>
