<svg width="21" height="24" viewBox="0 0 21 24" fill="none" xmlns="http://www.w3.org/2000/svg">
<path d="M2.57138 1.01703C0.804527 2.08653 0.457435 5.4296 1.1245 8.1543C1.64401 10.2761 2.74851 13.1224 4.61099 15.8027C6.36307 18.3241 8.80749 20.5849 10.6714 21.893C13.0649 23.5726 16.4769 24.6403 18.2437 23.5708C19.1371 23.03 20.4645 21.5524 20.525 21.2873C20.525 21.2873 19.7467 20.1672 19.5759 19.9214L16.9657 16.165C16.7717 15.8859 15.5553 16.141 14.9374 16.4677C14.1038 16.9085 13.3362 18.0913 13.3362 18.0913C12.7646 18.3995 12.2859 18.0924 11.2856 17.6627C10.0563 17.1348 8.67419 15.4946 7.57416 14.009C6.56944 12.4657 5.52847 10.6189 5.5134 9.35599C5.50099 8.3284 5.39583 7.79524 5.93045 7.43384C5.93045 7.43384 7.40058 7.26199 8.17176 6.73146C8.74335 6.33809 9.48901 5.40556 9.29505 5.12637L6.68485 1.37009C6.51404 1.12428 5.73569 0.00415687 5.73569 0.00415687C5.45157 -0.0523274 3.4648 0.476234 2.57138 1.01703Z" fill="#F2F2F2"/>
</svg>
