<svg width="533" height="150" viewBox="0 0 533 150" fill="none" xmlns="http://www.w3.org/2000/svg">
<path d="M36.0783 25.4886C35.8352 25.0435 35.4762 24.6546 35.0248 24.3715L18.8791 14.2399V12.8077C18.8788 12.7584 18.9025 12.7139 18.9378 12.6824C19.0822 12.6698 19.2733 12.6468 19.4982 12.6027C19.9587 12.5115 20.564 12.3438 21.1717 11.9516C22.0632 11.3719 22.802 10.5825 23.3203 9.64932C23.8382 8.71622 24.1339 7.63735 24.1336 6.49928C24.1341 4.70858 23.4038 3.0756 22.2302 1.90291C21.058 0.729243 19.4251 0 17.6349 0C16.2931 0 15.0358 0.409387 13.9999 1.11033C12.9636 1.81113 12.1416 2.8009 11.647 3.96888C11.3794 4.60164 11.6758 5.33186 12.3085 5.59969C12.9415 5.86709 13.672 5.57139 13.9394 4.9387C14.2429 4.22048 14.7533 3.60563 15.3938 3.17307C16.0349 2.74065 16.8001 2.48898 17.6349 2.48898C18.7454 2.48898 19.7404 2.93558 20.4701 3.66377C21.1977 4.39294 21.644 5.3879 21.6443 6.49928C21.644 7.20802 21.4631 7.86487 21.1439 8.44096C20.8246 9.01607 20.3659 9.50677 19.8156 9.86426C19.6011 10.0074 19.2819 10.1122 19.0239 10.1604C18.8955 10.185 18.7841 10.1982 18.7115 10.2039C18.6748 10.2076 18.6483 10.2092 18.6344 10.2097H18.6271L18.4583 10.2118L18.2926 10.2611C17.1645 10.5951 16.3903 11.6309 16.39 12.8078V14.2782L1.80456 24.4533L1.80484 24.4523C0.971604 25.0336 0.499229 25.9756 0.500001 26.9528C0.500001 27.2578 0.546206 27.5666 0.640513 27.8659C1.03965 29.1366 2.21655 30 3.54758 30H33.4052C34.764 30 35.9579 29.101 36.334 27.7951V27.7946C36.4135 27.5162 36.453 27.2326 36.453 26.9527C36.453 26.4364 36.3217 25.9341 36.0783 25.4886ZM33.9421 27.1079V27.1073C33.8734 27.3459 33.654 27.5115 33.4053 27.5115H3.54758C3.30357 27.5115 3.08778 27.3521 3.01496 27.1205C2.99684 27.0639 2.98905 27.0078 2.98905 26.9527C2.98954 26.7734 3.075 26.6004 3.2278 26.4945H3.22836L17.6711 16.4201L33.7019 26.4793C33.7866 26.5329 33.8495 26.602 33.8949 26.6838C33.94 26.7656 33.9643 26.8584 33.9643 26.9528C33.9643 27.0036 33.957 27.0544 33.9421 27.1079Z" fill="#68B504"/>
<path d="M62.7331 22V8H67.9731C69.1598 8 70.1798 8.19333 71.0331 8.58C71.8865 8.95333 72.5398 9.5 72.9931 10.22C73.4598 10.9267 73.6931 11.7867 73.6931 12.8C73.6931 13.7867 73.4598 14.64 72.9931 15.36C72.5398 16.0667 71.8865 16.6133 71.0331 17C70.1798 17.3733 69.1598 17.56 67.9731 17.56H63.5531L64.2131 16.88V22H62.7331ZM72.2931 22L68.6931 16.92H70.2931L73.9131 22H72.2931ZM64.2131 17L63.5531 16.3H67.9331C69.3331 16.3 70.3931 15.9933 71.1131 15.38C71.8465 14.7667 72.2131 13.9067 72.2131 12.8C72.2131 11.68 71.8465 10.8133 71.1131 10.2C70.3931 9.58667 69.3331 9.28 67.9331 9.28H63.5531L64.2131 8.58V17ZM81.1663 22.1C80.1529 22.1 79.2396 21.8733 78.4263 21.42C77.6263 20.9533 76.9929 20.32 76.5263 19.52C76.0596 18.7067 75.8263 17.78 75.8263 16.74C75.8263 15.6867 76.0596 14.76 76.5263 13.96C76.9929 13.16 77.6263 12.5333 78.4263 12.08C79.2263 11.6267 80.1396 11.4 81.1663 11.4C82.2063 11.4 83.1263 11.6267 83.9263 12.08C84.7396 12.5333 85.3729 13.16 85.8263 13.96C86.2929 14.76 86.5263 15.6867 86.5263 16.74C86.5263 17.78 86.2929 18.7067 85.8263 19.52C85.3729 20.32 84.7396 20.9533 83.9263 21.42C83.1129 21.8733 82.1929 22.1 81.1663 22.1ZM81.1663 20.84C81.9263 20.84 82.5996 20.6733 83.1863 20.34C83.7729 19.9933 84.2329 19.5133 84.5663 18.9C84.9129 18.2733 85.0863 17.5533 85.0863 16.74C85.0863 15.9133 84.9129 15.1933 84.5663 14.58C84.2329 13.9667 83.7729 13.4933 83.1863 13.16C82.5996 12.8133 81.9329 12.64 81.1863 12.64C80.4396 12.64 79.7729 12.8133 79.1863 13.16C78.5996 13.4933 78.1329 13.9667 77.7863 14.58C77.4396 15.1933 77.2663 15.9133 77.2663 16.74C77.2663 17.5533 77.4396 18.2733 77.7863 18.9C78.1329 19.5133 78.5996 19.9933 79.1863 20.34C79.7729 20.6733 80.4329 20.84 81.1663 20.84ZM93.7653 22.1C92.872 22.1 92.092 21.9333 91.4253 21.6C90.7586 21.2667 90.2386 20.7667 89.8653 20.1C89.5053 19.4333 89.3253 18.6 89.3253 17.6V11.5H90.7453V17.44C90.7453 18.56 91.0186 19.4067 91.5653 19.98C92.1253 20.54 92.9053 20.82 93.9053 20.82C94.6386 20.82 95.272 20.6733 95.8053 20.38C96.352 20.0733 96.7653 19.6333 97.0453 19.06C97.3386 18.4867 97.4853 17.8 97.4853 17V11.5H98.9053V22H97.5453V19.12L97.7653 19.64C97.432 20.4133 96.912 21.02 96.2053 21.46C95.512 21.8867 94.6986 22.1 93.7653 22.1ZM108.283 22.1C107.376 22.1 106.556 21.8933 105.823 21.48C105.089 21.0533 104.503 20.4467 104.063 19.66C103.636 18.86 103.423 17.8867 103.423 16.74C103.423 15.5933 103.636 14.6267 104.063 13.84C104.489 13.04 105.069 12.4333 105.803 12.02C106.536 11.6067 107.363 11.4 108.283 11.4C109.283 11.4 110.176 11.6267 110.963 12.08C111.763 12.52 112.389 13.1467 112.843 13.96C113.296 14.76 113.523 15.6867 113.523 16.74C113.523 17.8067 113.296 18.74 112.843 19.54C112.389 20.34 111.763 20.9667 110.963 21.42C110.176 21.8733 109.283 22.1 108.283 22.1ZM102.863 25.88V11.5H104.223V14.66L104.083 16.76L104.283 18.88V25.88H102.863ZM108.183 20.84C108.929 20.84 109.596 20.6733 110.183 20.34C110.769 19.9933 111.236 19.5133 111.583 18.9C111.929 18.2733 112.103 17.5533 112.103 16.74C112.103 15.9267 111.929 15.2133 111.583 14.6C111.236 13.9867 110.769 13.5067 110.183 13.16C109.596 12.8133 108.929 12.64 108.183 12.64C107.436 12.64 106.763 12.8133 106.163 13.16C105.576 13.5067 105.109 13.9867 104.763 14.6C104.429 15.2133 104.263 15.9267 104.263 16.74C104.263 17.5533 104.429 18.2733 104.763 18.9C105.109 19.5133 105.576 19.9933 106.163 20.34C106.763 20.6733 107.436 20.84 108.183 20.84ZM122.939 22V19.68L122.879 19.3V15.42C122.879 14.5267 122.626 13.84 122.119 13.36C121.626 12.88 120.886 12.64 119.899 12.64C119.219 12.64 118.572 12.7533 117.959 12.98C117.346 13.2067 116.826 13.5067 116.399 13.88L115.759 12.82C116.292 12.3667 116.932 12.02 117.679 11.78C118.426 11.5267 119.212 11.4 120.039 11.4C121.399 11.4 122.446 11.74 123.179 12.42C123.926 13.0867 124.299 14.1067 124.299 15.48V22H122.939ZM119.319 22.1C118.532 22.1 117.846 21.9733 117.259 21.72C116.686 21.4533 116.246 21.0933 115.939 20.64C115.632 20.1733 115.479 19.64 115.479 19.04C115.479 18.4933 115.606 18 115.859 17.56C116.126 17.1067 116.552 16.7467 117.139 16.48C117.739 16.2 118.539 16.06 119.539 16.06H123.159V17.12H119.579C118.566 17.12 117.859 17.3 117.459 17.66C117.072 18.02 116.879 18.4667 116.879 19C116.879 19.6 117.112 20.08 117.579 20.44C118.046 20.8 118.699 20.98 119.539 20.98C120.339 20.98 121.026 20.8 121.599 20.44C122.186 20.0667 122.612 19.5333 122.879 18.84L123.199 19.82C122.932 20.5133 122.466 21.0667 121.799 21.48C121.146 21.8933 120.319 22.1 119.319 22.1ZM130.976 22.1C130.109 22.1 129.289 21.98 128.516 21.74C127.742 21.4867 127.136 21.1733 126.696 20.8L127.336 19.68C127.762 20 128.309 20.28 128.976 20.52C129.642 20.7467 130.342 20.86 131.076 20.86C132.076 20.86 132.796 20.7067 133.236 20.4C133.676 20.08 133.896 19.66 133.896 19.14C133.896 18.7533 133.769 18.4533 133.516 18.24C133.276 18.0133 132.956 17.8467 132.556 17.74C132.156 17.62 131.709 17.52 131.216 17.44C130.722 17.36 130.229 17.2667 129.736 17.16C129.256 17.0533 128.816 16.9 128.416 16.7C128.016 16.4867 127.689 16.2 127.436 15.84C127.196 15.48 127.076 15 127.076 14.4C127.076 13.8267 127.236 13.3133 127.556 12.86C127.876 12.4067 128.342 12.0533 128.956 11.8C129.582 11.5333 130.342 11.4 131.236 11.4C131.916 11.4 132.596 11.4933 133.276 11.68C133.956 11.8533 134.516 12.0867 134.956 12.38L134.336 13.52C133.869 13.2 133.369 12.9733 132.836 12.84C132.302 12.6933 131.769 12.62 131.236 12.62C130.289 12.62 129.589 12.7867 129.136 13.12C128.696 13.44 128.476 13.8533 128.476 14.36C128.476 14.76 128.596 15.0733 128.836 15.3C129.089 15.5267 129.416 15.7067 129.816 15.84C130.229 15.96 130.676 16.06 131.156 16.14C131.649 16.22 132.136 16.32 132.616 16.44C133.109 16.5467 133.556 16.7 133.956 16.9C134.369 17.0867 134.696 17.36 134.936 17.72C135.189 18.0667 135.316 18.5267 135.316 19.1C135.316 19.7133 135.142 20.2467 134.796 20.7C134.462 21.14 133.969 21.4867 133.316 21.74C132.676 21.98 131.896 22.1 130.976 22.1Z" fill="#333333"/>
<path d="M3.83333 50C5.99325 52.5 4.82479 54.2302 3.83333 55.8333C3.01044 57.1639 0.5 61.6198 0.5 62.5C0.91509 64.0491 2.35696 65.1042 3.83333 65.1042C5.09756 64.3743 6.10123 62.7321 7.16667 61.6667C7.16667 61.6667 10.5 65.8333 10.5 69.1667C10.5 71.1944 7.16667 78.75 7.16667 78.75C7.54832 79.1317 9.64049 80.1864 10.5 80.4167C10.5 80.4167 13.9044 73.3741 17.1667 72.5C19.2465 71.9427 21.879 71.9763 23.8333 72.5C27.1124 73.3786 30.5 80.4167 30.5 80.4167C31.3448 80.1903 33.2546 79.0841 33.8333 78.75C33.8333 78.75 30.9377 72.4668 30.5 70.8333C30.5 70.8333 29.0984 66.5942 30.5 64.1667C34.8011 61.6834 38.8333 63.8404 38.8333 70.8333C40.5939 69.8169 42.2189 65.8333 42.1667 64.1667C40.5803 58.2463 33.8333 55.8333 28.8333 60.8333C25.615 58.9753 20.0502 58.7808 15.5 60C15.5 52.5 8.69915 50 3.83333 50ZM5.91667 55.8333C6.60702 55.8333 7.16667 56.393 7.16667 57.0833C7.16667 57.7737 6.60702 58.3333 5.91667 58.3333C5.22631 58.3333 4.66667 57.7737 4.66667 57.0833C4.66667 56.393 5.22631 55.8333 5.91667 55.8333ZM3 79.1667L0.5 82.5C0.5 82.5 7.16667 90 20.5 90C33.8333 90 40.5 82.5 40.5 82.5L38 79.1667C38 79.1667 30.5 85.8333 20.5 85.8333C10.5 85.8333 3 79.1667 3 79.1667Z" fill="#68B504"/>
<path d="M68.448 77V63H74.488C76.048 63 77.2546 63.3133 78.108 63.94C78.9746 64.5667 79.408 65.4533 79.408 66.6C79.408 67.36 79.228 68 78.868 68.52C78.5213 69.04 78.0413 69.4333 77.428 69.7C76.828 69.9667 76.168 70.1 75.448 70.1L75.788 69.62C76.6813 69.62 77.448 69.76 78.088 70.04C78.7413 70.3067 79.248 70.7133 79.608 71.26C79.968 71.7933 80.148 72.46 80.148 73.26C80.148 74.4467 79.708 75.3667 78.828 76.02C77.9613 76.6733 76.648 77 74.888 77H68.448ZM69.928 75.78H74.868C76.0946 75.78 77.0346 75.5733 77.688 75.16C78.3413 74.7333 78.668 74.06 78.668 73.14C78.668 72.2333 78.3413 71.5733 77.688 71.16C77.0346 70.7333 76.0946 70.52 74.868 70.52H69.768V69.3H74.388C75.508 69.3 76.3746 69.0867 76.988 68.66C77.6146 68.2333 77.928 67.6 77.928 66.76C77.928 65.9067 77.6146 65.2733 76.988 64.86C76.3746 64.4333 75.508 64.22 74.388 64.22H69.928V75.78ZM83.2261 77V66.5H84.5861V69.36L84.4461 68.86C84.7394 68.06 85.2328 67.4533 85.9261 67.04C86.6194 66.6133 87.4794 66.4 88.5061 66.4V67.78C88.4528 67.78 88.3994 67.78 88.3461 67.78C88.2928 67.7667 88.2394 67.76 88.1861 67.76C87.0794 67.76 86.2128 68.1 85.5861 68.78C84.9594 69.4467 84.6461 70.4 84.6461 71.64V77H83.2261ZM91.0972 77V66.5H92.5172V77H91.0972ZM91.8172 64.18C91.5239 64.18 91.2772 64.08 91.0772 63.88C90.8772 63.68 90.7772 63.44 90.7772 63.16C90.7772 62.88 90.8772 62.6467 91.0772 62.46C91.2772 62.26 91.5239 62.16 91.8172 62.16C92.1105 62.16 92.3572 62.2533 92.5572 62.44C92.7572 62.6267 92.8572 62.86 92.8572 63.14C92.8572 63.4333 92.7572 63.68 92.5572 63.88C92.3705 64.08 92.1239 64.18 91.8172 64.18ZM101.828 66.4C102.682 66.4 103.428 66.5667 104.068 66.9C104.722 67.22 105.228 67.7133 105.588 68.38C105.962 69.0467 106.148 69.8867 106.148 70.9V77H104.728V71.04C104.728 69.9333 104.448 69.1 103.888 68.54C103.342 67.9667 102.568 67.68 101.568 67.68C100.822 67.68 100.168 67.8333 99.6083 68.14C99.0616 68.4333 98.6349 68.8667 98.3283 69.44C98.0349 70 97.8883 70.68 97.8883 71.48V77H96.4683V66.5H97.8283V69.38L97.6083 68.84C97.9416 68.08 98.4749 67.4867 99.2083 67.06C99.9416 66.62 100.815 66.4 101.828 66.4ZM114.164 77.1C113.164 77.1 112.264 76.8733 111.464 76.42C110.677 75.9667 110.057 75.34 109.604 74.54C109.151 73.74 108.924 72.8067 108.924 71.74C108.924 70.6867 109.151 69.76 109.604 68.96C110.057 68.1467 110.677 67.52 111.464 67.08C112.264 66.6267 113.164 66.4 114.164 66.4C115.097 66.4 115.924 66.6067 116.644 67.02C117.377 67.4333 117.957 68.04 118.384 68.84C118.811 69.6267 119.024 70.5933 119.024 71.74C119.024 72.8867 118.804 73.86 118.364 74.66C117.937 75.4467 117.357 76.0533 116.624 76.48C115.904 76.8933 115.084 77.1 114.164 77.1ZM114.264 75.84C115.011 75.84 115.677 75.6733 116.264 75.34C116.864 74.9933 117.331 74.5133 117.664 73.9C118.011 73.2733 118.184 72.5533 118.184 71.74C118.184 70.9267 118.011 70.2133 117.664 69.6C117.331 68.9867 116.864 68.5067 116.264 68.16C115.677 67.8133 115.011 67.64 114.264 67.64C113.531 67.64 112.871 67.8133 112.284 68.16C111.697 68.5067 111.231 68.9867 110.884 69.6C110.537 70.2133 110.364 70.9267 110.364 71.74C110.364 72.5533 110.537 73.2733 110.884 73.9C111.231 74.5133 111.697 74.9933 112.284 75.34C112.871 75.6733 113.531 75.84 114.264 75.84ZM118.164 80.88V73.88L118.364 71.76L118.224 69.66V66.5H119.584V80.88H118.164ZM127.879 77.1C126.985 77.1 126.205 76.9333 125.539 76.6C124.872 76.2667 124.352 75.7667 123.979 75.1C123.619 74.4333 123.439 73.6 123.439 72.6V66.5H124.859V72.44C124.859 73.56 125.132 74.4067 125.679 74.98C126.239 75.54 127.019 75.82 128.019 75.82C128.752 75.82 129.385 75.6733 129.919 75.38C130.465 75.0733 130.879 74.6333 131.159 74.06C131.452 73.4867 131.599 72.8 131.599 72V66.5H133.019V77H131.659V74.12L131.879 74.64C131.545 75.4133 131.025 76.02 130.319 76.46C129.625 76.8867 128.812 77.1 127.879 77.1ZM141.436 77.1C140.343 77.1 139.383 76.8733 138.556 76.42C137.729 75.9533 137.083 75.32 136.616 74.52C136.149 73.7067 135.916 72.78 135.916 71.74C135.916 70.7 136.136 69.78 136.576 68.98C137.029 68.18 137.643 67.5533 138.416 67.1C139.203 66.6333 140.083 66.4 141.056 66.4C142.043 66.4 142.916 66.6267 143.676 67.08C144.449 67.52 145.056 68.1467 145.496 68.96C145.936 69.76 146.156 70.6867 146.156 71.74C146.156 71.8067 146.149 71.88 146.136 71.96C146.136 72.0267 146.136 72.1 146.136 72.18H136.996V71.12H145.376L144.816 71.54C144.816 70.78 144.649 70.1067 144.316 69.52C143.996 68.92 143.556 68.4533 142.996 68.12C142.436 67.7867 141.789 67.62 141.056 67.62C140.336 67.62 139.689 67.7867 139.116 68.12C138.543 68.4533 138.096 68.92 137.776 69.52C137.456 70.12 137.296 70.8067 137.296 71.58V71.8C137.296 72.6 137.469 73.3067 137.816 73.92C138.176 74.52 138.669 74.9933 139.296 75.34C139.936 75.6733 140.663 75.84 141.476 75.84C142.116 75.84 142.709 75.7267 143.256 75.5C143.816 75.2733 144.296 74.9267 144.696 74.46L145.496 75.38C145.029 75.94 144.443 76.3667 143.736 76.66C143.043 76.9533 142.276 77.1 141.436 77.1ZM153.226 77.1C152.226 77.1 151.326 76.8733 150.526 76.42C149.74 75.9667 149.12 75.34 148.666 74.54C148.213 73.7267 147.986 72.7933 147.986 71.74C147.986 70.6733 148.213 69.74 148.666 68.94C149.12 68.14 149.74 67.52 150.526 67.08C151.326 66.6267 152.226 66.4 153.226 66.4C154.146 66.4 154.966 66.6067 155.686 67.02C156.42 67.4333 157 68.04 157.426 68.84C157.866 69.6267 158.086 70.5933 158.086 71.74C158.086 72.8733 157.873 73.84 157.446 74.64C157.02 75.44 156.44 76.0533 155.706 76.48C154.986 76.8933 154.16 77.1 153.226 77.1ZM153.326 75.84C154.073 75.84 154.74 75.6733 155.326 75.34C155.926 74.9933 156.393 74.5133 156.726 73.9C157.073 73.2733 157.246 72.5533 157.246 71.74C157.246 70.9133 157.073 70.1933 156.726 69.58C156.393 68.9667 155.926 68.4933 155.326 68.16C154.74 67.8133 154.073 67.64 153.326 67.64C152.593 67.64 151.933 67.8133 151.346 68.16C150.76 68.4933 150.293 68.9667 149.946 69.58C149.6 70.1933 149.426 70.9133 149.426 71.74C149.426 72.5533 149.6 73.2733 149.946 73.9C150.293 74.5133 150.76 74.9933 151.346 75.34C151.933 75.6733 152.593 75.84 153.326 75.84ZM157.286 77V73.84L157.426 71.72L157.226 69.6V62.16H158.646V77H157.286ZM166.881 77.1C165.868 77.1 164.954 76.8733 164.141 76.42C163.341 75.9533 162.708 75.32 162.241 74.52C161.774 73.7067 161.541 72.78 161.541 71.74C161.541 70.6867 161.774 69.76 162.241 68.96C162.708 68.16 163.341 67.5333 164.141 67.08C164.941 66.6267 165.854 66.4 166.881 66.4C167.921 66.4 168.841 66.6267 169.641 67.08C170.454 67.5333 171.088 68.16 171.541 68.96C172.008 69.76 172.241 70.6867 172.241 71.74C172.241 72.78 172.008 73.7067 171.541 74.52C171.088 75.32 170.454 75.9533 169.641 76.42C168.828 76.8733 167.908 77.1 166.881 77.1ZM166.881 75.84C167.641 75.84 168.314 75.6733 168.901 75.34C169.488 74.9933 169.948 74.5133 170.281 73.9C170.628 73.2733 170.801 72.5533 170.801 71.74C170.801 70.9133 170.628 70.1933 170.281 69.58C169.948 68.9667 169.488 68.4933 168.901 68.16C168.314 67.8133 167.648 67.64 166.901 67.64C166.154 67.64 165.488 67.8133 164.901 68.16C164.314 68.4933 163.848 68.9667 163.501 69.58C163.154 70.1933 162.981 70.9133 162.981 71.74C162.981 72.5533 163.154 73.2733 163.501 73.9C163.848 74.5133 164.314 74.9933 164.901 75.34C165.488 75.6733 166.148 75.84 166.881 75.84ZM177.96 77.1C177.093 77.1 176.273 76.98 175.5 76.74C174.727 76.4867 174.12 76.1733 173.68 75.8L174.32 74.68C174.747 75 175.293 75.28 175.96 75.52C176.627 75.7467 177.327 75.86 178.06 75.86C179.06 75.86 179.78 75.7067 180.22 75.4C180.66 75.08 180.88 74.66 180.88 74.14C180.88 73.7533 180.753 73.4533 180.5 73.24C180.26 73.0133 179.94 72.8467 179.54 72.74C179.14 72.62 178.693 72.52 178.2 72.44C177.707 72.36 177.213 72.2667 176.72 72.16C176.24 72.0533 175.8 71.9 175.4 71.7C175 71.4867 174.673 71.2 174.42 70.84C174.18 70.48 174.06 70 174.06 69.4C174.06 68.8267 174.22 68.3133 174.54 67.86C174.86 67.4067 175.327 67.0533 175.94 66.8C176.567 66.5333 177.327 66.4 178.22 66.4C178.9 66.4 179.58 66.4933 180.26 66.68C180.94 66.8533 181.5 67.0867 181.94 67.38L181.32 68.52C180.853 68.2 180.353 67.9733 179.82 67.84C179.287 67.6933 178.753 67.62 178.22 67.62C177.273 67.62 176.573 67.7867 176.12 68.12C175.68 68.44 175.46 68.8533 175.46 69.36C175.46 69.76 175.58 70.0733 175.82 70.3C176.073 70.5267 176.4 70.7067 176.8 70.84C177.213 70.96 177.66 71.06 178.14 71.14C178.633 71.22 179.12 71.32 179.6 71.44C180.093 71.5467 180.54 71.7 180.94 71.9C181.353 72.0867 181.68 72.36 181.92 72.72C182.173 73.0667 182.3 73.5267 182.3 74.1C182.3 74.7133 182.127 75.2467 181.78 75.7C181.447 76.14 180.953 76.4867 180.3 76.74C179.66 76.98 178.88 77.1 177.96 77.1Z" fill="#333333"/>
<path d="M10.5783 144.882L17.7968 136.129L21.0988 140.341L14.7344 148.434C12.297 151.532 7.78669 148.268 10.5783 144.882ZM19.0086 124.949C19.6961 122.706 19.3801 120.789 16.7969 117.942L10.4845 110.349C9.58872 109.297 7.47767 110.842 8.35959 112.116L13.4081 118.335C14.3629 119.494 12.5886 121.029 11.6026 119.835L6.38047 113.404C5.40828 112.29 3.39792 113.762 4.41525 115.036C5.88743 116.807 8.16515 119.699 9.63733 121.47C10.6581 122.508 9.10609 124.046 8.09918 122.751L2.91529 116.362C2.1549 115.536 0.911875 116.05 0.582023 117.015C0.227866 118.046 1.09937 118.8 1.6931 119.564L7.47767 127.036C9.27276 129.116 11.2796 130.348 13.6129 129.65C13.9705 129.543 14.408 129.324 14.8768 129.036L30.418 149.098C31.2548 150.177 32.8693 150.292 33.9179 149.421L34.1575 149.223C35.338 148.24 35.529 146.445 34.5186 145.285L18.0607 126.376C18.5399 125.841 18.8905 125.334 19.0086 124.949ZM23.4078 129.324L25.9667 126.22C22.6752 118.06 34.8727 107.186 40.7858 112.185C47.9696 118.265 37.2928 132.917 29.7896 129.296L26.7584 133.147L23.4078 129.324Z" fill="#68B504"/>
<path d="M67.2041 137L73.6041 123H75.0641L81.4641 137H79.9041L74.0241 123.86H74.6241L68.7441 137H67.2041ZM69.7241 133.26L70.1641 132.06H78.3041L78.7441 133.26H69.7241ZM83.48 137V122.16H84.9V137H83.48ZM88.8511 137V126.5H90.2711V137H88.8511ZM89.5711 124.18C89.2778 124.18 89.0311 124.08 88.8311 123.88C88.6311 123.68 88.5311 123.44 88.5311 123.16C88.5311 122.88 88.6311 122.647 88.8311 122.46C89.0311 122.26 89.2778 122.16 89.5711 122.16C89.8644 122.16 90.1111 122.253 90.3111 122.44C90.5111 122.627 90.6111 122.86 90.6111 123.14C90.6111 123.433 90.5111 123.68 90.3111 123.88C90.1244 124.08 89.8778 124.18 89.5711 124.18ZM107.342 126.4C108.196 126.4 108.936 126.567 109.562 126.9C110.202 127.22 110.696 127.713 111.042 128.38C111.402 129.047 111.582 129.887 111.582 130.9V137H110.162V131.04C110.162 129.933 109.896 129.1 109.362 128.54C108.842 127.967 108.102 127.68 107.142 127.68C106.422 127.68 105.796 127.833 105.262 128.14C104.742 128.433 104.336 128.867 104.042 129.44C103.762 130 103.622 130.68 103.622 131.48V137H102.202V131.04C102.202 129.933 101.936 129.1 101.402 128.54C100.869 127.967 100.122 127.68 99.1622 127.68C98.4555 127.68 97.8355 127.833 97.3022 128.14C96.7689 128.433 96.3555 128.867 96.0622 129.44C95.7822 130 95.6422 130.68 95.6422 131.48V137H94.2222V126.5H95.5822V129.34L95.3622 128.84C95.6822 128.08 96.1955 127.487 96.9022 127.06C97.6222 126.62 98.4689 126.4 99.4422 126.4C100.469 126.4 101.342 126.66 102.062 127.18C102.782 127.687 103.249 128.453 103.462 129.48L102.902 129.26C103.209 128.407 103.749 127.72 104.522 127.2C105.309 126.667 106.249 126.4 107.342 126.4ZM119.893 137.1C118.8 137.1 117.84 136.873 117.013 136.42C116.186 135.953 115.54 135.32 115.073 134.52C114.606 133.707 114.373 132.78 114.373 131.74C114.373 130.7 114.593 129.78 115.033 128.98C115.486 128.18 116.1 127.553 116.873 127.1C117.66 126.633 118.54 126.4 119.513 126.4C120.5 126.4 121.373 126.627 122.133 127.08C122.906 127.52 123.513 128.147 123.953 128.96C124.393 129.76 124.613 130.687 124.613 131.74C124.613 131.807 124.606 131.88 124.593 131.96C124.593 132.027 124.593 132.1 124.593 132.18H115.453V131.12H123.833L123.273 131.54C123.273 130.78 123.106 130.107 122.773 129.52C122.453 128.92 122.013 128.453 121.453 128.12C120.893 127.787 120.246 127.62 119.513 127.62C118.793 127.62 118.146 127.787 117.573 128.12C117 128.453 116.553 128.92 116.233 129.52C115.913 130.12 115.753 130.807 115.753 131.58V131.8C115.753 132.6 115.926 133.307 116.273 133.92C116.633 134.52 117.126 134.993 117.753 135.34C118.393 135.673 119.12 135.84 119.933 135.84C120.573 135.84 121.166 135.727 121.713 135.5C122.273 135.273 122.753 134.927 123.153 134.46L123.953 135.38C123.486 135.94 122.9 136.367 122.193 136.66C121.5 136.953 120.733 137.1 119.893 137.1ZM132.863 126.4C133.717 126.4 134.463 126.567 135.103 126.9C135.757 127.22 136.263 127.713 136.623 128.38C136.997 129.047 137.183 129.887 137.183 130.9V137H135.763V131.04C135.763 129.933 135.483 129.1 134.923 128.54C134.377 127.967 133.603 127.68 132.603 127.68C131.857 127.68 131.203 127.833 130.643 128.14C130.097 128.433 129.67 128.867 129.363 129.44C129.07 130 128.923 130.68 128.923 131.48V137H127.503V126.5H128.863V129.38L128.643 128.84C128.977 128.08 129.51 127.487 130.243 127.06C130.977 126.62 131.85 126.4 132.863 126.4ZM144.339 137.1C143.352 137.1 142.592 136.833 142.059 136.3C141.526 135.767 141.259 135.013 141.259 134.04V124.18H142.679V133.96C142.679 134.573 142.832 135.047 143.139 135.38C143.459 135.713 143.912 135.88 144.499 135.88C145.126 135.88 145.646 135.7 146.059 135.34L146.559 136.36C146.279 136.613 145.939 136.8 145.539 136.92C145.152 137.04 144.752 137.1 144.339 137.1ZM139.379 127.68V126.5H145.879V127.68H139.379ZM153.053 137.1C152.04 137.1 151.126 136.873 150.313 136.42C149.513 135.953 148.88 135.32 148.413 134.52C147.946 133.707 147.713 132.78 147.713 131.74C147.713 130.687 147.946 129.76 148.413 128.96C148.88 128.16 149.513 127.533 150.313 127.08C151.113 126.627 152.026 126.4 153.053 126.4C154.093 126.4 155.013 126.627 155.813 127.08C156.626 127.533 157.26 128.16 157.713 128.96C158.18 129.76 158.413 130.687 158.413 131.74C158.413 132.78 158.18 133.707 157.713 134.52C157.26 135.32 156.626 135.953 155.813 136.42C155 136.873 154.08 137.1 153.053 137.1ZM153.053 135.84C153.813 135.84 154.486 135.673 155.073 135.34C155.66 134.993 156.12 134.513 156.453 133.9C156.8 133.273 156.973 132.553 156.973 131.74C156.973 130.913 156.8 130.193 156.453 129.58C156.12 128.967 155.66 128.493 155.073 128.16C154.486 127.813 153.82 127.64 153.073 127.64C152.326 127.64 151.66 127.813 151.073 128.16C150.486 128.493 150.02 128.967 149.673 129.58C149.326 130.193 149.153 130.913 149.153 131.74C149.153 132.553 149.326 133.273 149.673 133.9C150.02 134.513 150.486 134.993 151.073 135.34C151.66 135.673 152.32 135.84 153.053 135.84ZM164.132 137.1C163.265 137.1 162.445 136.98 161.672 136.74C160.899 136.487 160.292 136.173 159.852 135.8L160.492 134.68C160.919 135 161.465 135.28 162.132 135.52C162.799 135.747 163.499 135.86 164.232 135.86C165.232 135.86 165.952 135.707 166.392 135.4C166.832 135.08 167.052 134.66 167.052 134.14C167.052 133.753 166.925 133.453 166.672 133.24C166.432 133.013 166.112 132.847 165.712 132.74C165.312 132.62 164.865 132.52 164.372 132.44C163.879 132.36 163.385 132.267 162.892 132.16C162.412 132.053 161.972 131.9 161.572 131.7C161.172 131.487 160.845 131.2 160.592 130.84C160.352 130.48 160.232 130 160.232 129.4C160.232 128.827 160.392 128.313 160.712 127.86C161.032 127.407 161.499 127.053 162.112 126.8C162.739 126.533 163.499 126.4 164.392 126.4C165.072 126.4 165.752 126.493 166.432 126.68C167.112 126.853 167.672 127.087 168.112 127.38L167.492 128.52C167.025 128.2 166.525 127.973 165.992 127.84C165.459 127.693 164.925 127.62 164.392 127.62C163.445 127.62 162.745 127.787 162.292 128.12C161.852 128.44 161.632 128.853 161.632 129.36C161.632 129.76 161.752 130.073 161.992 130.3C162.245 130.527 162.572 130.707 162.972 130.84C163.385 130.96 163.832 131.06 164.312 131.14C164.805 131.22 165.292 131.32 165.772 131.44C166.265 131.547 166.712 131.7 167.112 131.9C167.525 132.087 167.852 132.36 168.092 132.72C168.345 133.067 168.472 133.527 168.472 134.1C168.472 134.713 168.299 135.247 167.952 135.7C167.619 136.14 167.125 136.487 166.472 136.74C165.832 136.98 165.052 137.1 164.132 137.1Z" fill="#333333"/>
</svg>
