<svg width="37" height="30" viewBox="0 0 37 30" fill="none" xmlns="http://www.w3.org/2000/svg">
<path d="M36.0783 25.4886C35.8352 25.0435 35.4762 24.6546 35.0248 24.3715L18.8791 14.2399V12.8077C18.8788 12.7584 18.9025 12.7139 18.9378 12.6824C19.0822 12.6698 19.2733 12.6468 19.4982 12.6027C19.9587 12.5115 20.564 12.3438 21.1717 11.9516C22.0632 11.3719 22.802 10.5825 23.3203 9.64932C23.8382 8.71622 24.1339 7.63735 24.1336 6.49928C24.1341 4.70858 23.4038 3.0756 22.2302 1.90291C21.058 0.729243 19.4251 0 17.6349 0C16.2931 0 15.0358 0.409387 13.9999 1.11033C12.9636 1.81113 12.1416 2.8009 11.647 3.96888C11.3794 4.60164 11.6758 5.33186 12.3085 5.59969C12.9415 5.86709 13.672 5.57139 13.9394 4.9387C14.2429 4.22048 14.7533 3.60563 15.3938 3.17307C16.0349 2.74065 16.8001 2.48898 17.6349 2.48898C18.7454 2.48898 19.7404 2.93558 20.4701 3.66377C21.1977 4.39294 21.644 5.3879 21.6443 6.49928C21.644 7.20802 21.4631 7.86487 21.1439 8.44096C20.8246 9.01607 20.3659 9.50677 19.8156 9.86426C19.6011 10.0074 19.2819 10.1122 19.0239 10.1604C18.8955 10.185 18.7841 10.1982 18.7115 10.2039C18.6748 10.2076 18.6483 10.2092 18.6344 10.2097H18.6271L18.4583 10.2118L18.2926 10.2611C17.1645 10.5951 16.3903 11.6309 16.39 12.8078V14.2782L1.80456 24.4533L1.80484 24.4523C0.971604 25.0336 0.499229 25.9756 0.500001 26.9528C0.500001 27.2578 0.546206 27.5666 0.640513 27.8659C1.03965 29.1366 2.21655 30 3.54758 30H33.4052C34.764 30 35.9579 29.101 36.334 27.7951V27.7946C36.4135 27.5162 36.453 27.2326 36.453 26.9527C36.453 26.4364 36.3217 25.9341 36.0783 25.4886ZM33.9421 27.1079V27.1073C33.8734 27.3459 33.654 27.5115 33.4053 27.5115H3.54758C3.30357 27.5115 3.08778 27.3521 3.01496 27.1205C2.99684 27.0639 2.98905 27.0078 2.98905 26.9527C2.98954 26.7734 3.075 26.6004 3.2278 26.4945H3.22836L17.6711 16.4201L33.7019 26.4793C33.7866 26.5329 33.8495 26.602 33.8949 26.6838C33.94 26.7656 33.9643 26.8584 33.9643 26.9528C33.9643 27.0036 33.957 27.0544 33.9421 27.1079Z" fill="#68B504"/>
</svg>

